<svg width="80" height="32" viewBox="0 0 80 32" fill="none" xmlns="http://www.w3.org/2000/svg">
<path d="M39.8325 12.4183H46.8377V19.4235H39.8325V12.4183Z" fill="#49C5B6"/>
<path d="M16.4852 0.000183105C7.27977 0.000183105 -6.31628e-05 6.90429 -6.31628e-05 16.0628C-6.31628e-05 25.2213 7.27977 31.842 16.4852 31.842C22.5439 31.842 27.4285 29.1665 30.1995 24.4229L25.3619 21.0413C23.2954 24.3759 20.4304 26.2546 16.4852 26.2546C10.7553 26.2546 6.52831 22.0745 6.52831 16.1098C6.52831 10.098 10.7553 5.87102 16.4852 5.87102C20.4304 5.87102 23.2954 7.74969 25.3619 11.0843L30.1995 7.70272C27.4285 2.95909 22.5439 0.000183105 16.4852 0.000183105Z" fill="black"/>
<path d="M52.4888 -7.24878e-06V31.8418H62.4393C72.565 31.8418 80.0001 24.9799 80.0001 15.6662C80.0001 6.25691 72.979 -7.24878e-06 62.8533 -7.24878e-06H52.4888ZM62.8055 5.82704C69.158 5.82704 73.4088 9.45701 73.4088 15.6662C73.4088 21.732 69.158 25.6963 62.8055 25.6963H58.9367V5.82704H62.8055Z" fill="black"/>
<path d="M52.4886 0.0383703L33.3835 0.0383606V31.842H39.7838L39.8315 19.5733V13.7463V5.86541L52.4886 5.8654V0.0383703Z" fill="black"/>
</svg>
